<?xml version="1.0" encoding="UTF-8" standalone="no"?>
<svg
   xmlns:dc="http://purl.org/dc/elements/1.1/"
   xmlns:cc="http://creativecommons.org/ns#"
   xmlns:rdf="http://www.w3.org/1999/02/22-rdf-syntax-ns#"
   xmlns:svg="http://www.w3.org/2000/svg"
   xmlns="http://www.w3.org/2000/svg"
   width="1000"
   height="290"
   viewBox="0 0 290 290"
   fill="none"
   version="1.1"
   id="svg10">
  <metadata
     id="metadata16">
    <rdf:RDF>
      <cc:Work
         rdf:about="">
        <dc:format>image/svg+xml</dc:format>
        <dc:type
           rdf:resource="http://purl.org/dc/dcmitype/StillImage" />
        <dc:title></dc:title>
      </cc:Work>
    </rdf:RDF>
  </metadata>
  <defs
     id="defs14" />
  <g
     id="g334"
     transform="matrix(0.56754228,0,0,0.56754228,52.701616,44.31329)"
     style="fill:#666666;stroke-width:1.76199">
    <path
       fill-rule="evenodd"
       clip-rule="evenodd"
       d="m -52.837403,215.80277 v 15.99769 c 0,1.76704 1.432497,3.19954 3.199539,3.19954 h 12.798154 c 1.767041,0 3.199538,-1.4325 3.199538,-3.19954 v -15.99769 -19.19723 -15.9977 c 0,-1.76678 1.432498,-3.19953 3.199539,-3.19953 H -14.44294 1.5547524 c 1.7667852,0 3.1995386,-1.43276 3.1995386,-3.19954 v -15.9977 -19.19723 -15.99769 c 0,-1.76678 -1.4327534,-3.19954 -3.1995386,-3.19954 H -14.44294 -33.640172 -49.637864 c -1.767042,0 -3.199539,1.43276 -3.199539,3.19954 v 12.79815 c 0,1.76679 1.432497,3.19954 3.199539,3.19954 h 15.997692 15.997693 c 1.766785,0 3.199539,1.43276 3.199539,3.19954 v 12.79816 c 0,1.76678 -1.432754,3.19953 -3.199539,3.19953 h -15.997693 -15.997692 c -1.767042,0 -3.199539,1.43276 -3.199539,3.19954 v 15.9977 19.19723 z"
       fill="#c4c4c4"
       id="path330"
       style="fill:#666666;stroke-width:1.76199" />
    <path
       fill-rule="evenodd"
       clip-rule="evenodd"
       d="m -14.44294,215.80277 v 15.99769 c 0,1.76704 1.432753,3.19954 3.199538,3.19954 H 1.5547524 c 1.7667852,0 3.1995386,-1.4325 3.1995386,-3.19954 v -15.99769 -15.99769 c 0,-1.76679 -1.4327534,-3.19954 -3.1995386,-3.19954 H -11.243402 c -1.766785,0 -3.199538,1.43275 -3.199538,3.19954 z"
       fill="#c4c4c4"
       id="path332"
       style="fill:#b3b3b3;stroke-width:1.76199" />
  </g>
  <g
     id="g340"
     transform="matrix(0,-0.36317468,0.36317468,0,208.13802,197.66033)"
     style="fill:#666666;stroke-width:2.7535">
    <path
       fill-rule="evenodd"
       clip-rule="evenodd"
       d="m 85,180 c 0,-2.761 -2.2386,-5 -5,-5 H 60 c -2.7614,0 -5,2.239 -5,5 v 20 c 0,2.761 2.2386,5 5,5 h 25 v 25 c 0,2.761 2.2386,5 5,5 h 25 30 30 25 c 2.761,0 5,-2.239 5,-5 v -25 h 25 c 2.761,0 5,-2.239 5,-5 v -20 c 0,-2.761 -2.239,-5 -5,-5 h -20 c -2.761,0 -5,2.239 -5,5 v 25 H 175 145 115 85 Z"
       fill="#c4c4c4"
       id="path336"
       style="fill:#666666;stroke-width:4.30296" />
    <path
       fill-rule="evenodd"
       clip-rule="evenodd"
       d="m 60,130.30768 c -2.7614,0 -5,2.2386 -5,5 v 20 c 0,2.7614 2.2386,5 5,5 56.66667,0 113.33333,0 170,0 2.761,0 5,-2.239 5,-5 v -20 c 0,-2.7614 -2.239,-5 -5,-5 -56.66667,0 -113.33333,0 -170,0 z"
       fill="#c4c4c4"
       id="path338"
       style="fill:#b3b3b3;stroke-width:4.30296" />
  </g>
  <path
     fill-rule="evenodd"
     clip-rule="evenodd"
     d="m -186.02063,166.79048 v 9.07937 c 0,1.00286 0.81301,1.81587 1.81588,1.81587 h 7.26349 c 1.00287,0 1.81587,-0.81301 1.81587,-1.81587 v -9.07937 -10.89524 -9.07937 c 0,-1.00272 0.81301,-1.81586 1.81588,-1.81586 h 9.07937 9.07937 c 1.00272,0 1.81587,-0.81315 1.81587,-1.81587 v -9.07938 -10.89523 -9.07938 c 0,-1.00272 -0.81315,-1.81587 -1.81587,-1.81587 h -9.07937 -10.89525 -9.07936 c -1.00287,0 -1.81588,0.81315 -1.81588,1.81587 v 7.2635 c 0,1.00272 0.81301,1.81588 1.81588,1.81588 h 9.07936 9.07937 c 1.00272,0 1.81588,0.81315 1.81588,1.81587 v 7.2635 c 0,1.00272 -0.81316,1.81586 -1.81588,1.81586 h -9.07937 -9.07936 c -1.00287,0 -1.81588,0.81315 -1.81588,1.81588 v 9.07937 10.89523 z"
     fill="#c4c4c4"
     id="path342"
     style="fill:#666666;stroke-width:0.999997" />
  <g
     aria-label="ablo"
     id="text346"
     style="font-style:normal;font-weight:normal;font-size:71.301px;line-height:1.25;font-family:sans-serif;fill:#000000;fill-opacity:1;stroke:none;stroke-width:1">
    <path
       d="m -139.44273,175.5644 q -4.63456,0 -6.77359,-2.28163 -2.06773,-2.35294 -2.06773,-6.20319 0,-2.99464 1.42602,-4.91977 1.49732,-1.99643 3.77895,-3.20854 2.28164,-1.28342 4.77717,-2.13903 2.56684,-0.92692 4.84847,-1.78253 2.28163,-0.85561 3.70765,-1.92513 1.49732,-1.06951 1.49732,-2.70943 v -4.42067 q 0,-2.99464 -0.92691,-4.56326 -0.85561,-1.56862 -2.35293,-2.06773 -1.49733,-0.57041 -3.35115,-0.57041 -1.78253,0 -3.85026,0.49911 -1.99642,0.49911 -3.20854,2.06773 1.35472,0.2852 2.35293,1.42602 0.99822,1.14081 0.99822,2.92334 0,1.78252 -1.14082,2.85204 -1.14082,0.99821 -2.92334,0.99821 -2.06773,0 -3.06594,-1.28341 -0.92692,-1.35472 -0.92692,-2.99465 0,-1.85382 0.92692,-2.99464 0.92691,-1.14081 2.35293,-2.13903 1.63992,-1.14081 4.20676,-1.92513 2.63814,-0.85561 5.91798,-0.85561 2.92334,0 4.99107,0.71301 2.06773,0.64171 3.42245,1.92513 1.85383,1.71122 2.42423,4.20676 0.57041,2.42423 0.57041,5.84668 v 19.82168 q 0,1.71122 0.49911,2.56684 0.49911,0.78431 1.71122,0.78431 0.99822,0 1.71123,-0.42781 0.78431,-0.42781 1.49732,-1.06951 l 0.78431,1.21211 q -1.49732,1.14082 -2.85204,1.92513 -1.35472,0.71301 -3.63635,0.71301 -3.70765,0 -4.91977,-1.92513 -1.21212,-1.92512 -1.21212,-4.42066 -2.28163,3.77895 -5.20497,5.06237 -2.85204,1.28342 -5.98929,1.28342 z m 3.13725,-2.85204 q 2.13903,0 4.20676,-1.21212 2.06773,-1.28342 3.85025,-4.20676 v -13.97499 q -1.06951,1.56862 -3.35115,2.49553 -2.21033,0.92691 -4.63456,2.06773 -2.35293,1.06952 -4.06416,2.99464 -1.71122,1.85383 -1.71122,5.34758 0,3.27984 1.63992,4.91977 1.63992,1.56862 4.06416,1.56862 z"
       style="font-style:normal;font-variant:normal;font-weight:normal;font-stretch:normal;font-family:'Playfair Display';-inkscape-font-specification:'Playfair Display';stroke-width:1"
       id="path408" />
    <path
       d="m -92.30942,137.34706 q 5.846682,0 9.696936,4.84847 3.850254,4.77717 3.850254,14.5454 0,6.41709 -2.210331,10.76646 -2.13903,4.27806 -5.775381,6.41709 -3.636351,2.13903 -7.914411,2.13903 -3.56505,0 -6.916197,-1.99643 -3.27985,-2.06773 -4.91977,-6.06059 l 1.42602,0.78431 q 1.78253,2.85204 4.42066,4.27806 2.63814,1.35472 5.418879,1.35472 4.777167,0 7.1301,-4.27806 2.424234,-4.34936 2.424234,-13.40459 0,-5.77538 -0.926913,-9.62563 -0.926913,-3.85025 -2.85204,-5.70408 -1.925127,-1.92513 -4.919769,-1.92513 -3.279846,0 -6.131891,2.99464 -2.78073,2.92335 -3.42244,8.62743 l -0.85562,-0.99822 q 0.78432,-6.06058 4.20676,-9.41173 3.493753,-3.35115 8.27092,-3.35115 z m -11.12296,-18.11045 v 52.12103 q -0.92691,0.78431 -1.92512,1.63992 -0.92692,0.78431 -1.85383,1.56863 -0.92691,0.78431 -1.92513,1.63992 l -1.21211,-0.49911 q 0.2852,-0.99821 0.3565,-1.99643 0.1426,-1.06951 0.1426,-2.13903 v -43.77881 q 0,-3.20855 -1.14081,-4.70587 -1.14082,-1.56862 -4.27806,-1.56862 v -1.49732 q 2.28163,0.2139 4.42066,0.2139 2.06773,0 3.92155,-0.2139 1.92513,-0.28521 3.49375,-0.78431 z"
       style="font-style:normal;font-variant:normal;font-weight:normal;font-stretch:normal;font-family:'Playfair Display';-inkscape-font-specification:'Playfair Display';stroke-width:1"
       id="path410" />
    <path
       d="m -62.738447,119.16531 v 49.26899 q 0,2.99464 1.212117,4.06416 1.283418,1.06951 4.206759,1.06951 v 1.49732 q -1.212117,-0.0713 -3.707652,-0.1426 -2.424234,-0.1426 -4.91977,-0.1426 -2.424234,0 -4.919769,0.1426 -2.495535,0.0713 -3.707652,0.1426 v -1.49732 q 2.923341,0 4.135458,-1.06951 1.283418,-1.06952 1.283418,-4.06416 v -40.71287 q 0,-3.20855 -1.140816,-4.70587 -1.140816,-1.56862 -4.27806,-1.56862 v -1.49732 q 2.281632,0.2139 4.420662,0.2139 2.067729,0 3.921555,-0.2139 1.925128,-0.28521 3.49375,-0.78431 z"
       style="font-style:normal;font-variant:normal;font-weight:normal;font-stretch:normal;font-family:'Playfair Display';-inkscape-font-specification:'Playfair Display';stroke-width:1"
       id="path412" />
    <path
       d="m -36.970926,137.34706 q 4.563264,0 8.199615,1.99643 3.636352,1.99643 5.775382,6.27449 2.210331,4.27806 2.210331,11.12295 0,6.8449 -2.210331,11.12296 -2.13903,4.20676 -5.775382,6.20319 -3.636351,1.99643 -8.199615,1.99643 -4.491963,0 -8.199615,-1.99643 -3.636351,-1.99643 -5.846682,-6.20319 -2.13903,-4.27806 -2.13903,-11.12296 0,-6.84489 2.13903,-11.12295 2.210331,-4.27806 5.846682,-6.27449 3.707652,-1.99643 8.199615,-1.99643 z m 0,1.42602 q -4.064157,0 -6.702294,4.20676 -2.566836,4.20676 -2.566836,13.76109 0,9.55434 2.566836,13.7611 2.638137,4.13546 6.702294,4.13546 4.064157,0 6.630993,-4.13546 2.638137,-4.20676 2.638137,-13.7611 0,-9.55433 -2.638137,-13.76109 -2.566836,-4.20676 -6.630993,-4.20676 z"
       style="font-style:normal;font-variant:normal;font-weight:normal;font-stretch:normal;font-family:'Playfair Display';-inkscape-font-specification:'Playfair Display';stroke-width:1"
       id="path414" />
  </g>
  <g
     aria-label="ocha"
     id="text350"
     style="font-style:normal;font-weight:normal;font-size:71.301px;line-height:1.25;font-family:sans-serif;fill:#000000;fill-opacity:1;stroke:none;stroke-width:1">
    <path
       d="m 78.908629,137.34706 q 4.563264,0 8.199615,1.99643 3.636351,1.99643 5.775381,6.27449 2.210331,4.27806 2.210331,11.12295 0,6.8449 -2.210331,11.12296 -2.13903,4.20676 -5.775381,6.20319 -3.636351,1.99643 -8.199615,1.99643 -4.491963,0 -8.199615,-1.99643 -3.636351,-1.99643 -5.846683,-6.20319 -2.13903,-4.27806 -2.13903,-11.12296 0,-6.84489 2.13903,-11.12295 2.210332,-4.27806 5.846683,-6.27449 3.707652,-1.99643 8.199615,-1.99643 z m 0,1.42602 q -4.064157,0 -6.702294,4.20676 -2.566836,4.20676 -2.566836,13.76109 0,9.55434 2.566836,13.7611 2.638137,4.13546 6.702294,4.13546 4.064157,0 6.630993,-4.13546 2.638137,-4.20676 2.638137,-13.7611 0,-9.55433 -2.638137,-13.76109 -2.566836,-4.20676 -6.630993,-4.20676 z"
       style="font-style:normal;font-variant:normal;font-weight:normal;font-stretch:normal;font-family:'Playfair Display';-inkscape-font-specification:'Playfair Display';stroke-width:1"
       id="path399" />
    <path
       d="m 118.39713,137.34706 q 2.28163,0 4.42066,0.57041 2.13903,0.57041 3.85026,1.71122 1.63992,1.06952 2.49553,2.49554 0.85561,1.35472 0.85561,2.99464 0,1.92513 -1.06951,2.99464 -1.06952,0.99822 -2.70944,0.99822 -1.56862,0 -2.78074,-0.92692 -1.14081,-0.92691 -1.14081,-2.63813 0,-1.63993 0.85561,-2.63814 0.92691,-0.99821 2.13903,-1.28342 -0.71301,-1.28342 -2.56684,-2.13903 -1.78252,-0.85561 -3.85025,-0.85561 -1.78253,0 -3.56505,0.85561 -1.78253,0.85561 -3.27985,2.85204 -1.49732,1.92513 -2.42423,5.34758 -0.92692,3.35114 -0.92692,8.41352 0,6.27448 1.42602,9.98214 1.42602,3.70765 3.70766,5.34757 2.35293,1.56862 5.13367,1.56862 2.78074,0 5.63278,-1.63992 2.85204,-1.63992 4.70586,-5.70408 l 1.35472,0.49911 q -0.71301,2.28163 -2.35293,4.63456 -1.63992,2.28163 -4.27806,3.77896 -2.63814,1.49732 -6.48839,1.49732 -4.42066,0 -7.98571,-2.28164 -3.56505,-2.28163 -5.70408,-6.48839 -2.06773,-4.27806 -2.06773,-10.12474 0,-5.84668 2.06773,-10.26734 2.13903,-4.49197 5.91798,-6.9875 3.77895,-2.56684 8.62742,-2.56684 z"
       style="font-style:normal;font-variant:normal;font-weight:normal;font-stretch:normal;font-family:'Playfair Display';-inkscape-font-specification:'Playfair Display';stroke-width:1"
       id="path401" />
    <path
       d="m 146.44182,119.23661 v 26.66657 q 1.85382,-4.84847 5.13367,-6.70229 3.35115,-1.85383 6.9875,-1.85383 2.70944,0 4.49196,0.71301 1.85383,0.71301 3.06595,1.99643 1.35471,1.42602 1.92512,3.56505 0.57041,2.13903 0.57041,5.77538 v 19.03737 q 0,2.99464 1.21212,4.06416 1.28342,1.06951 4.20676,1.06951 v 1.49732 q -1.21212,-0.0713 -3.70766,-0.1426 -2.49553,-0.1426 -4.84846,-0.1426 -2.35294,0 -4.63457,0.1426 -2.21033,0.0713 -3.35115,0.1426 v -1.49732 q 2.56684,0 3.63636,-1.06951 1.06951,-1.06952 1.06951,-4.06416 v -20.60599 q 0,-2.21033 -0.3565,-4.06416 -0.35651,-1.85382 -1.63993,-2.99464 -1.21211,-1.14082 -3.77895,-1.14082 -4.34936,0 -7.2014,3.63636 -2.78074,3.56505 -2.78074,9.26913 v 15.90012 q 0,2.99464 1.06951,4.06416 1.06952,1.06951 3.63636,1.06951 v 1.49732 q -1.14082,-0.0713 -3.42245,-0.1426 -2.21033,-0.1426 -4.56327,-0.1426 -2.35293,0 -4.84847,0.1426 -2.49553,0.0713 -3.70765,0.1426 v -1.49732 q 2.92334,0 4.13546,-1.06951 1.28342,-1.06952 1.28342,-4.06416 v -40.64157 q 0,-3.20855 -1.14082,-4.70587 -1.14081,-1.56862 -4.27806,-1.56862 v -1.49732 q 2.28163,0.2139 4.42066,0.2139 2.06773,0 3.92156,-0.2139 1.92513,-0.28521 3.49375,-0.78431 z"
       style="font-style:normal;font-variant:normal;font-weight:normal;font-stretch:normal;font-family:'Playfair Display';-inkscape-font-specification:'Playfair Display';stroke-width:1"
       id="path403" />
    <path
       d="m 186.71909,175.5644 q -4.63457,0 -6.7736,-2.28163 -2.06773,-2.35294 -2.06773,-6.20319 0,-2.99464 1.42602,-4.91977 1.49732,-1.99643 3.77896,-3.20854 2.28163,-1.28342 4.77716,-2.13903 2.56684,-0.92692 4.84847,-1.78253 2.28163,-0.85561 3.70765,-1.92513 1.49732,-1.06951 1.49732,-2.70943 v -4.42067 q 0,-2.99464 -0.92691,-4.56326 -0.85561,-1.56862 -2.35293,-2.06773 -1.49732,-0.57041 -3.35115,-0.57041 -1.78252,0 -3.85025,0.49911 -1.99643,0.49911 -3.20855,2.06773 1.35472,0.2852 2.35293,1.42602 0.99822,1.14081 0.99822,2.92334 0,1.78252 -1.14082,2.85204 -1.14081,0.99821 -2.92334,0.99821 -2.06773,0 -3.06594,-1.28341 -0.92691,-1.35472 -0.92691,-2.99465 0,-1.85382 0.92691,-2.99464 0.92691,-1.14081 2.35293,-2.13903 1.63992,-1.14081 4.20676,-1.92513 2.63814,-0.85561 5.91798,-0.85561 2.92334,0 4.99107,0.71301 2.06773,0.64171 3.42245,1.92513 1.85383,1.71122 2.42424,4.20676 0.5704,2.42423 0.5704,5.84668 v 19.82168 q 0,1.71122 0.49911,2.56684 0.49911,0.78431 1.71123,0.78431 0.99821,0 1.71122,-0.42781 0.78431,-0.42781 1.49732,-1.06951 l 0.78431,1.21211 q -1.49732,1.14082 -2.85204,1.92513 -1.35472,0.71301 -3.63635,0.71301 -3.70765,0 -4.91977,-1.92513 -1.21212,-1.92512 -1.21212,-4.42066 -2.28163,3.77895 -5.20497,5.06237 -2.85204,1.28342 -5.98928,1.28342 z m 3.13724,-2.85204 q 2.13903,0 4.20676,-1.21212 2.06773,-1.28342 3.85025,-4.20676 v -13.97499 q -1.06951,1.56862 -3.35114,2.49553 -2.21033,0.92691 -4.63457,2.06773 -2.35293,1.06952 -4.06416,2.99464 -1.71122,1.85383 -1.71122,5.34758 0,3.27984 1.63992,4.91977 1.63993,1.56862 4.06416,1.56862 z"
       style="font-style:normal;font-variant:normal;font-weight:normal;font-stretch:normal;font-family:'Playfair Display';-inkscape-font-specification:'Playfair Display';stroke-width:1"
       id="path405" />
  </g>
  <g
     aria-label="inella"
     id="text354"
     style="font-style:normal;font-weight:normal;font-size:71.301px;line-height:1.25;font-family:sans-serif;fill:#000000;fill-opacity:1;stroke:none;stroke-width:1">
    <path
       d="m 309.84918,120.52003 q 1.85383,0 3.20855,1.35471 1.35471,1.35472 1.35471,3.20855 0,1.85383 -1.35471,3.20854 -1.35472,1.35472 -3.20855,1.35472 -1.85383,0 -3.20854,-1.35472 -1.35472,-1.35471 -1.35472,-3.20854 0,-1.85383 1.35472,-3.20855 1.35471,-1.35471 3.20854,-1.35471 z m 3.70765,17.04094 v 30.87333 q 0,2.99464 1.21212,4.06416 1.28342,1.06951 4.20676,1.06951 v 1.49732 q -1.21212,-0.0713 -3.70765,-0.1426 -2.42424,-0.1426 -4.91977,-0.1426 -2.42424,0 -4.91977,0.1426 -2.49554,0.0713 -3.70765,0.1426 v -1.49732 q 2.92334,0 4.13545,-1.06951 1.28342,-1.06952 1.28342,-4.06416 v -22.31721 q 0,-3.20855 -1.14081,-4.70587 -1.14082,-1.56862 -4.27806,-1.56862 v -1.49732 q 2.28163,0.2139 4.42066,0.2139 2.06773,0 3.92155,-0.2139 1.92513,-0.28521 3.49375,-0.78431 z"
       style="font-style:normal;font-variant:normal;font-weight:normal;font-stretch:normal;font-family:'Playfair Display';-inkscape-font-specification:'Playfair Display';stroke-width:1"
       id="path417" />
    <path
       d="m 346.56697,137.34706 q 2.70944,0 4.49196,0.71301 1.85383,0.71301 3.06594,1.99643 1.35472,1.42602 1.92513,3.56505 0.57041,2.13903 0.57041,5.77538 v 19.03737 q 0,2.99464 1.21212,4.06416 1.28342,1.06951 4.20676,1.06951 v 1.49732 q -1.21212,-0.0713 -3.70766,-0.1426 -2.49553,-0.1426 -4.84846,-0.1426 -2.35294,0 -4.63457,0.1426 -2.21033,0.0713 -3.35115,0.1426 v -1.49732 q 2.56684,0 3.63635,-1.06951 1.06952,-1.06952 1.06952,-4.06416 v -20.60599 q 0,-2.21033 -0.35651,-4.06416 -0.3565,-1.85382 -1.63992,-2.99464 -1.21212,-1.14082 -3.77895,-1.14082 -4.49196,0 -7.2727,3.77896 -2.70944,3.70765 -2.70944,9.19783 v 15.82882 q 0,2.99464 1.06951,4.06416 1.06952,1.06951 3.63635,1.06951 v 1.49732 q -1.14081,-0.0713 -3.42244,-0.1426 -2.21033,-0.1426 -4.56327,-0.1426 -2.35293,0 -4.84847,0.1426 -2.49553,0.0713 -3.70765,0.1426 v -1.49732 q 2.92334,0 4.13546,-1.06951 1.28342,-1.06952 1.28342,-4.06416 v -22.31721 q 0,-3.20855 -1.14082,-4.70587 -1.14081,-1.56862 -4.27806,-1.56862 v -1.49732 q 2.28163,0.2139 4.42066,0.2139 2.06773,0 3.92156,-0.2139 1.92513,-0.28521 3.49375,-0.78431 v 8.41351 q 1.85382,-4.84846 5.13367,-6.70229 3.35115,-1.92513 6.9875,-1.92513 z"
       style="font-style:normal;font-variant:normal;font-weight:normal;font-stretch:normal;font-family:'Playfair Display';-inkscape-font-specification:'Playfair Display';stroke-width:1"
       id="path419" />
    <path
       d="m 382.54947,137.34706 q 6.27448,0 9.76823,3.85026 3.56505,3.77895 3.56505,11.83596 H 370.7135 l -0.0713,-1.35472 h 18.39566 q 0.1426,-3.49375 -0.57041,-6.41709 -0.71301,-2.99464 -2.28163,-4.77716 -1.49732,-1.78253 -3.92156,-1.78253 -3.27984,0 -5.84668,3.27985 -2.49553,3.27984 -2.99464,10.40994 l 0.2139,0.28521 q -0.1426,1.06951 -0.2139,2.35293 -0.0713,1.28342 -0.0713,2.56684 0,4.84846 1.56862,8.34221 1.56862,3.49375 4.06416,5.34758 2.56683,1.78252 5.27627,1.78252 3.20855,0 5.91798,-1.56862 2.70944,-1.56862 4.56327,-5.56148 l 1.42602,0.57041 q -0.78431,2.35294 -2.56684,4.56327 -1.78252,2.21033 -4.49196,3.63635 -2.70944,1.35472 -6.27449,1.35472 -5.13367,0 -8.84132,-2.35294 -3.63635,-2.35293 -5.63278,-6.48839 -1.92513,-4.20676 -1.92513,-9.62563 0,-6.27449 1.99643,-10.76645 1.99643,-4.56327 5.63278,-6.9875 3.63635,-2.49554 8.48482,-2.49554 z"
       style="font-style:normal;font-variant:normal;font-weight:normal;font-stretch:normal;font-family:'Playfair Display';-inkscape-font-specification:'Playfair Display';stroke-width:1"
       id="path421" />
    <path
       d="m 412.62847,119.16531 v 49.26899 q 0,2.99464 1.21211,4.06416 1.28342,1.06951 4.20676,1.06951 v 1.49732 q -1.21212,-0.0713 -3.70765,-0.1426 -2.42423,-0.1426 -4.91977,-0.1426 -2.42423,0 -4.91977,0.1426 -2.49553,0.0713 -3.70765,0.1426 v -1.49732 q 2.92334,0 4.13546,-1.06951 1.28342,-1.06952 1.28342,-4.06416 v -40.71287 q 0,-3.20855 -1.14082,-4.70587 -1.14082,-1.56862 -4.27806,-1.56862 v -1.49732 q 2.28163,0.2139 4.42066,0.2139 2.06773,0 3.92156,-0.2139 1.92512,-0.28521 3.49375,-0.78431 z"
       style="font-style:normal;font-variant:normal;font-weight:normal;font-stretch:normal;font-family:'Playfair Display';-inkscape-font-specification:'Playfair Display';stroke-width:1"
       id="path423" />
    <path
       d="m 433.65669,119.16531 v 49.26899 q 0,2.99464 1.21211,4.06416 1.28342,1.06951 4.20676,1.06951 v 1.49732 q -1.21211,-0.0713 -3.70765,-0.1426 -2.42423,-0.1426 -4.91977,-0.1426 -2.42423,0 -4.91977,0.1426 -2.49553,0.0713 -3.70765,0.1426 v -1.49732 q 2.92334,0 4.13546,-1.06951 1.28342,-1.06952 1.28342,-4.06416 v -40.71287 q 0,-3.20855 -1.14082,-4.70587 -1.14082,-1.56862 -4.27806,-1.56862 v -1.49732 q 2.28163,0.2139 4.42066,0.2139 2.06773,0 3.92156,-0.2139 1.92512,-0.28521 3.49375,-0.78431 z"
       style="font-style:normal;font-variant:normal;font-weight:normal;font-stretch:normal;font-family:'Playfair Display';-inkscape-font-specification:'Playfair Display';stroke-width:1"
       id="path425" />
    <path
       d="m 452.20609,175.5644 q -4.63456,0 -6.77359,-2.28163 -2.06773,-2.35294 -2.06773,-6.20319 0,-2.99464 1.42602,-4.91977 1.49732,-1.99643 3.77895,-3.20854 2.28163,-1.28342 4.77717,-2.13903 2.56684,-0.92692 4.84847,-1.78253 2.28163,-0.85561 3.70765,-1.92513 1.49732,-1.06951 1.49732,-2.70943 v -4.42067 q 0,-2.99464 -0.92691,-4.56326 -0.85561,-1.56862 -2.35294,-2.06773 -1.49732,-0.57041 -3.35114,-0.57041 -1.78253,0 -3.85026,0.49911 -1.99642,0.49911 -3.20854,2.06773 1.35472,0.2852 2.35293,1.42602 0.99822,1.14081 0.99822,2.92334 0,1.78252 -1.14082,2.85204 -1.14082,0.99821 -2.92334,0.99821 -2.06773,0 -3.06594,-1.28341 -0.92692,-1.35472 -0.92692,-2.99465 0,-1.85382 0.92692,-2.99464 0.92691,-1.14081 2.35293,-2.13903 1.63992,-1.14081 4.20676,-1.92513 2.63813,-0.85561 5.91798,-0.85561 2.92334,0 4.99107,0.71301 2.06773,0.64171 3.42245,1.92513 1.85383,1.71122 2.42423,4.20676 0.57041,2.42423 0.57041,5.84668 v 19.82168 q 0,1.71122 0.49911,2.56684 0.49911,0.78431 1.71122,0.78431 0.99822,0 1.71123,-0.42781 0.78431,-0.42781 1.49732,-1.06951 l 0.78431,1.21211 q -1.49732,1.14082 -2.85204,1.92513 -1.35472,0.71301 -3.63635,0.71301 -3.70765,0 -4.91977,-1.92513 -1.21212,-1.92512 -1.21212,-4.42066 -2.28163,3.77895 -5.20497,5.06237 -2.85204,1.28342 -5.98929,1.28342 z m 3.13725,-2.85204 q 2.13903,0 4.20676,-1.21212 2.06773,-1.28342 3.85025,-4.20676 v -13.97499 q -1.06951,1.56862 -3.35115,2.49553 -2.21033,0.92691 -4.63456,2.06773 -2.35293,1.06952 -4.06416,2.99464 -1.71122,1.85383 -1.71122,5.34758 0,3.27984 1.63992,4.91977 1.63992,1.56862 4.06416,1.56862 z"
       style="font-style:normal;font-variant:normal;font-weight:normal;font-stretch:normal;font-family:'Playfair Display';-inkscape-font-specification:'Playfair Display';stroke-width:1"
       id="path427" />
  </g>
</svg>
